<?xml version="1.0" encoding="iso-8859-1"?>
<!-- Generator: Adobe Illustrator 19.0.0, SVG Export Plug-In . SVG Version: 6.00 Build 0)  -->
<svg version="1.1" id="Capa_1" xmlns="http://www.w3.org/2000/svg" xmlns:xlink="http://www.w3.org/1999/xlink" x="0px" y="0px"
	 viewBox="0 0 463.001 463.001" style="enable-background:new 0 0 463.001 463.001;" xml:space="preserve">
<g>
	<path d="M111.5,139c10.336,0,19.128-6.71,22.266-16H191.5c4.142,0,7.5-3.358,7.5-7.5s-3.358-7.5-7.5-7.5h-57.734
		c-3.138-9.29-11.93-16-22.266-16C98.542,92,88,102.542,88,115.5S98.542,139,111.5,139z M111.5,107c4.687,0,8.5,3.813,8.5,8.5
		c0,4.687-3.813,8.5-8.5,8.5s-8.5-3.813-8.5-8.5C103,110.813,106.813,107,111.5,107z"/>
	<path d="M455.501,212.001h-112.5v-17h40.5c12.958,0,23.5-10.542,23.5-23.5v-48C407.001,57.607,353.393,4,287.5,4H82.049
		C37.853,4,1.057,38.784,0.023,81.539c-0.485,20.089,6.548,39.436,19.804,54.475c12.041,13.66,28.228,22.7,45.994,25.783
		l2.945,9.006c0.81,2.478,2.005,4.745,3.499,6.751c-0.102,0.38-0.183,0.77-0.225,1.174L49.839,393.336
		c-0.929,8.98-5.604,17.238-12.828,22.655L25.4,424.701c-5.886,4.414-9.4,11.442-9.4,18.8v8c0,4.142,3.358,7.5,7.5,7.5h392
		c4.142,0,7.5-3.358,7.5-7.5v-8c0-17.369-14.131-31.5-31.5-31.5h-6.852c-2.371-0.832-6.859-3.213-8.879-11.871
		c-0.528-2.262-0.775-4.482-0.877-6.376c45.366-7.383,80.108-46.834,80.108-94.253v-72.5h0.5c4.142,0,7.5-3.358,7.5-7.5
		S459.643,212.001,455.501,212.001z M328.001,212.001H215.5c-4.142,0-7.5,3.358-7.5,7.5s3.358,7.5,7.5,7.5h0.5v72.5
		c0,47.424,34.749,86.879,80.121,94.256c-0.27,4.667-1.425,10.736-4.738,14.685C206.883,391.603,143,316.876,143,227.501v-48
		c0-0.65-0.092-1.278-0.247-1.88c1.493-1.988,2.691-4.234,3.509-6.689l2.644-7.931H264v8.5c0,12.958,10.542,23.5,23.5,23.5h40.5
		V212.001z M383.501,180.001h-96c-4.687,0-8.5-3.813-8.5-8.5v-8.5h113v8.5C392.001,176.188,388.188,180.001,383.501,180.001z
		 M31.081,126.095C20.33,113.898,14.626,98.203,15.02,81.901C15.857,47.217,45.927,19,82.049,19H287.5
		c52.355,0,95.838,38.703,103.349,89H223.5c-4.142,0-7.5,3.358-7.5,7.5s3.358,7.5,7.5,7.5h168.494
		c0.001,0.167,0.006,0.333,0.006,0.5v24.5H271.5h-128c-3.229,0-6.094,2.066-7.115,5.128l-4.353,13.06
		c-1.159,3.476-4.399,5.812-8.064,5.812H91.103c-3.687,0-6.934-2.354-8.08-5.859l-4.395-13.441c-0.914-2.797-3.379-4.8-6.303-5.124
		C56.383,145.813,41.735,138.184,31.081,126.095z M408.001,443.501v0.5H31v-0.5c0-2.661,1.271-5.203,3.4-6.8l11.612-8.709
		c10.557-7.917,17.39-19.986,18.748-33.112l21.557-208.385c1.553,0.321,3.151,0.506,4.786,0.506h32.865
		c1.37,0,2.716-0.128,4.032-0.356v40.856c0,110.005,89.496,199.5,199.5,199.5h55.976c0.009,0,0.019,0.002,0.028,0.002
		c0.008,0,0.016-0.002,0.024-0.002h7.973C400.599,427.001,408.001,434.402,408.001,443.501z M361.054,403.065
		c0.726,3.265,1.782,6.247,3.126,8.936h-36.679c-6.805,0-13.521-0.382-20.137-1.103c1.541-3.401,2.635-7.243,3.245-11.463
		c0.226-1.568,0.367-3.059,0.453-4.439c0.146,0.001,0.292,0.006,0.438,0.006h48c0.146,0,0.291-0.005,0.437-0.006
		C360.088,397.412,360.412,400.174,361.054,403.065z M440.001,299.501c0,44.388-36.112,80.5-80.5,80.5h-48
		c-44.388,0-80.5-36.112-80.5-80.5v-72.5h97v6.133c-7.338,10.6-40,59.518-40,90.367c0,26.191,21.309,47.5,47.5,47.5
		c26.191,0,47.5-21.309,47.5-47.5c0-29.971-32.742-79.683-40-90.334v-6.166h97V299.501z M303,323.501c0-16.722,13.252-43,25-62.638
		v94.255C313.685,351.721,303,338.839,303,323.501z M343.001,261.134c11.753,19.831,25,46.18,25,62.367
		c0,15.339-10.685,28.221-25,31.617V261.134z"/>
	<path d="M301.998,52.456c20.25,4.125,37.846,16.813,48.278,34.808c1.391,2.4,3.908,3.74,6.496,3.74
		c1.277,0,2.571-0.327,3.754-1.013c3.584-2.078,4.805-6.667,2.728-10.25c-12.58-21.7-33.816-37.002-58.262-41.983
		c-4.057-0.828-8.019,1.793-8.846,5.852C295.319,47.668,297.939,51.628,301.998,52.456z"/>
	<path d="M255.498,51h15.999c4.142,0,7.5-3.358,7.5-7.5s-3.358-7.5-7.5-7.5h-15.999c-4.142,0-7.5,3.358-7.5,7.5
		S251.356,51,255.498,51z"/>
	<path d="M403.631,334.742c1.211,0.73,2.545,1.077,3.863,1.077c2.543,0,5.023-1.293,6.431-3.63
		c5.937-9.852,9.075-21.156,9.075-32.688v-48c0-4.142-3.358-7.5-7.5-7.5s-7.5,3.358-7.5,7.5v48c0,8.804-2.394,17.431-6.922,24.947
		C398.94,327.995,400.084,332.604,403.631,334.742z"/>
</g>
<g>
</g>
<g>
</g>
<g>
</g>
<g>
</g>
<g>
</g>
<g>
</g>
<g>
</g>
<g>
</g>
<g>
</g>
<g>
</g>
<g>
</g>
<g>
</g>
<g>
</g>
<g>
</g>
<g>
</g>
</svg>
