<?xml version="1.0" encoding="iso-8859-1"?>
<!-- Generator: Adobe Illustrator 19.0.0, SVG Export Plug-In . SVG Version: 6.00 Build 0)  -->
<svg version="1.1" id="Capa_1" xmlns="http://www.w3.org/2000/svg" xmlns:xlink="http://www.w3.org/1999/xlink" x="0px" y="0px"
	 viewBox="0 0 463 463" style="enable-background:new 0 0 463 463;" xml:space="preserve">
<g>
	<path d="M395.195,67.805C351.471,24.08,293.336,0,231.5,0S111.529,24.08,67.805,67.805S0,169.664,0,231.5
		s24.08,119.971,67.805,163.695C111.529,438.92,169.664,463,231.5,463s119.971-24.08,163.695-67.805
		C438.92,351.471,463,293.336,463,231.5S438.92,111.53,395.195,67.805z M384.589,384.589C343.697,425.48,289.329,448,231.5,448
		s-112.197-22.52-153.089-63.411C37.52,343.698,15,289.329,15,231.5c0-57.83,22.52-112.197,63.411-153.089
		C119.303,37.52,173.671,15,231.5,15s112.197,22.52,153.089,63.411S448,173.671,448,231.5
		C448,289.329,425.48,343.698,384.589,384.589z"/>
	<path d="M307.57,99.569l-6.627,6.627c-2.929,2.929-2.929,7.678,0,10.606c1.464,1.465,3.384,2.197,5.303,2.197
		s3.839-0.732,5.303-2.197l6.627-6.627c2.929-2.929,2.929-7.678,0-10.606C315.248,96.64,310.499,96.641,307.57,99.569z"/>
	<path d="M155.431,363.431l9.373-9.373c2.929-2.929,2.929-7.678,0-10.606c-2.929-2.929-7.678-2.929-10.606,0l-9.373,9.373
		c-2.929,2.929-2.929,7.678,0,10.606c1.464,1.465,3.384,2.197,5.303,2.197S153.966,364.896,155.431,363.431z"/>
	<path d="M363.431,144.824c-2.929-2.93-7.678-2.93-10.606,0l-76.07,76.069l-34.648-34.648l45.442-45.442
		c2.929-2.929,2.929-7.677,0-10.606c-2.929-2.929-7.678-2.929-10.606,0L231.5,175.639l-76.07-76.069
		c-2.929-2.93-7.678-2.93-10.606,0c-2.929,2.929-2.929,7.677,0,10.606l76.07,76.069l-34.648,34.648l-76.07-76.069
		c-2.929-2.93-7.678-2.93-10.606,0c-2.929,2.929-2.929,7.677,0,10.606l76.07,76.069l-76.07,76.069
		c-2.929,2.929-2.929,7.678,0,10.606c1.464,1.465,3.384,2.197,5.303,2.197s3.839-0.732,5.303-2.197l76.07-76.069l34.648,34.648
		l-42.697,42.696c-2.929,2.929-2.929,7.678,0,10.606c1.464,1.465,3.384,2.197,5.303,2.197s3.839-0.732,5.303-2.197l42.697-42.696
		l76.07,76.069c1.464,1.465,3.384,2.197,5.303,2.197s3.839-0.732,5.303-2.197c2.929-2.929,2.929-7.678,0-10.606l-76.07-76.069
		l34.648-34.648l76.07,76.069c1.464,1.465,3.384,2.197,5.303,2.197s3.839-0.732,5.303-2.197c2.929-2.929,2.929-7.678,0-10.606
		l-76.07-76.069l76.07-76.069C366.36,152.502,366.36,147.753,363.431,144.824z M231.5,266.149L196.852,231.5l34.648-34.648
		l34.648,34.648L231.5,266.149z"/>
	<path d="M300.685,60.407c5.206,2.107,10.378,4.484,15.373,7.064c1.101,0.569,2.277,0.838,3.436,0.838
		c2.716,0,5.337-1.479,6.67-4.059c1.901-3.68,0.458-8.205-3.221-10.105c-5.403-2.791-10.998-5.362-16.628-7.641
		c-3.839-1.554-8.212,0.297-9.767,4.138C294.993,54.481,296.845,58.854,300.685,60.407z"/>
	<path d="M67.479,316.07c-3.845-7.441-7.207-15.213-9.993-23.1c-1.379-3.905-5.663-5.953-9.57-4.574
		c-3.906,1.379-5.953,5.665-4.574,9.57c3.014,8.532,6.651,16.939,10.81,24.989c1.333,2.579,3.954,4.059,6.669,4.059
		c1.159,0,2.335-0.27,3.437-0.838C67.938,324.274,69.38,319.75,67.479,316.07z"/>
	<path d="M170.054,405.523c-35.659-12.591-66.238-35.551-88.43-66.399c-2.419-3.363-7.106-4.129-10.468-1.708
		c-3.362,2.419-4.127,7.106-1.708,10.468c23.989,33.346,57.051,58.168,95.612,71.783c0.826,0.292,1.668,0.43,2.497,0.43
		c3.09,0,5.984-1.925,7.072-5.005C176.008,411.187,173.96,406.903,170.054,405.523z"/>
	<path d="M424.714,181.63c-10.971-42.627-36.301-81.009-71.323-108.075c-3.278-2.534-7.987-1.929-10.521,1.348
		c-2.533,3.277-1.929,7.987,1.348,10.521c32.396,25.037,55.825,60.531,65.969,99.945c0.871,3.385,3.917,5.632,7.258,5.632
		c0.619,0,1.248-0.077,1.875-0.238C423.332,189.73,425.747,185.641,424.714,181.63z"/>
</g>
<g>
</g>
<g>
</g>
<g>
</g>
<g>
</g>
<g>
</g>
<g>
</g>
<g>
</g>
<g>
</g>
<g>
</g>
<g>
</g>
<g>
</g>
<g>
</g>
<g>
</g>
<g>
</g>
<g>
</g>
</svg>
